<svg xmlns="http://www.w3.org/2000/svg" viewBox="0 0 512 512">
  <defs>
    <linearGradient id="goldGradient" x1="0%" y1="0%" x2="100%" y2="100%">
      <stop offset="0%" style="stop-color:#ffd700;stop-opacity:1" />
      <stop offset="100%" style="stop-color:#b8860b;stop-opacity:1" />
    </linearGradient>
  </defs>
  <path fill="#002d72" d="M256 32L64 96v160c0 106 82 205 192 224 110-19 192-118 192-224V96L256 32z"/>
  <path fill="url(#goldGradient)" d="M256 128c-44.2 0-80 35.8-80 80v32h160v-32c0-44.2-35.8-80-80-80zm-112 112v112c0 17.7 14.3 32 32 32h160c17.7 0 32-14.3 32-32V240H144z"/>
  <text x="256" y="340" font-family="Playfair Display, serif" font-size="120" font-weight="bold" fill="#002d72" text-anchor="middle">S</text>
</svg>